M48
;Layer_Color=9474304
;FILE_FORMAT=2:4
INCH,LZ
;TYPE=PLATED
T1F00S00C0.0100
T2F00S00C0.0300
T3F00S00C0.0315
T4F00S00C0.0394
T5F00S00C0.0512
T6F00S00C0.0591
T7F00S00C0.0984
;TYPE=NON_PLATED
T8F00S00C0.1575
%
T01
X006693Y001575
X006299Y00374
X005906Y005906
X00748Y006299
X008858Y005118
X01122
X011024Y004724
Y002953
X012008Y006693
Y008268
X011614Y009055
Y009449
X008661Y008661
X007874Y010039
X005512Y010236
Y009646
X005709Y008268
X001378Y007283
X001575Y00689
Y009449
X001181Y010039
X001575Y011024
X010827Y012992
X013386Y013189
X014173Y010827
X016339Y008268
X017323Y00689
X01811Y005906
X019488Y006299
X019685Y004921
X020276Y007677
X026181Y006496
X035827Y00689
X03563Y007283
X035827Y009449
X035433Y010039
X035827Y011024
X039764Y010236
Y009646
X039961Y008268
X040157Y005906
X041732Y006299
X04311Y005118
X042913Y008661
X042126Y010039
X040551Y00374
X040945Y001575
X045276Y002953
Y004724
X045472Y005118
X04626Y006693
Y008268
X045866Y009055
Y009449
X048425Y010827
X047638Y013189
X045079Y012992
X050591Y008268
X051575Y00689
X052362Y005906
X05374Y006299
X053937Y004921
X054528Y007677
X060433Y006496
X048425Y017913
X047638Y019882
X044291Y01811
X050197Y031102
X053687Y031156
X054724Y029331
X053937Y028346
X057677Y030512
X041732Y01811
X039961Y017913
X014173
X013386Y019882
X015945Y031102
X019435Y031156
X020472Y029331
X019685Y028346
X023425Y030512
X010039Y01811
X00748
X005709Y017913
X060433Y052165
X05374Y051969
X053937Y050591
X052362Y051575
X051575Y052559
X050591Y053937
X04626
X045866Y054724
Y055118
X04626Y052362
X045472Y050787
X045276Y050394
Y048622
X045079Y058661
X047638Y058858
X048425Y056496
X054528Y053346
X042913Y054331
X042126Y055709
X039764Y055906
Y055315
X039961Y053937
X040157Y051575
X041732Y051969
X04311Y050787
X040551Y049409
X040945Y047244
X035827Y052559
X03563Y052953
X035827Y055118
X035433Y055709
X035827Y056693
X031299Y054528
Y059843
X018504Y059252
Y061417
X020866Y055512
Y055118
X019094Y052953
X012402Y059252
Y061417
X006102
X006299Y059252
X004134Y054331
Y052756
X00748Y051378
Y073622
X004134Y075
Y076575
X019094Y075197
X020866Y077362
Y077756
X019685Y065551
X039961Y063583
X041732Y06378
X031299Y076772
X050197Y076772
X053687Y076825
X054724Y075
X053937Y074016
X057677Y076181
X047638Y065551
X048425Y063583
X044291Y06378
X031299Y082087
X018504Y081496
Y083661
X019685Y087795
X012402Y083661
Y081496
X006299
X006102Y083661
T02
X007795Y010827
X010787
X042047
X045039
Y056496
X042047
T03
X048032Y02185
X042047
X03987Y024606
X03887
X01378Y02185
X007795
X005618Y024606
X004618
Y033268
X005618
X03887
X03987
X02176Y057677
X02076
X013492Y057087
X012492
X00739Y056693
X00639
X002075Y053543
X001075
Y075787
X002075
X03887Y070276
X03987
X042047Y06752
X048032
X03987Y078937
X03887
X02176Y079921
X02076
X013492Y079331
X012492
X00739Y078937
X00639
T04
X007087Y007087
X007874
X008661
X009449
X010236
X01122Y015157
X003543
X014173
X024409Y01063
X025591Y008661
Y007283
Y005906
X026969Y001969
X02815Y000787
X02126Y001772
Y00315
X041339Y007087
X042126
X042913
X043701
X037795Y015157
X045472
X048425
X044488Y007087
X055512Y00315
Y001772
X058661Y01063
X059843Y008661
Y007283
Y005906
X06122Y001969
X062402Y000787
X059843Y016142
Y017323
X055437Y017717
Y018717
Y016717
X052437
X052388Y017717
X052437Y018717
X054331Y02185
X056299
X037992Y026378
Y027756
X037795Y016535
X025591Y016142
Y017323
X021185Y017717
Y018717
Y016717
X018185
X018136Y017717
X018185Y018717
X020079Y02185
X022047
X00374Y026378
Y027756
X003543Y016535
X003937Y037008
Y038386
X026575Y035236
Y033858
X038189Y037008
Y038386
X060827Y035236
Y033858
X062402Y046457
X06122Y047638
X059843Y051575
Y052953
Y054331
Y061811
X055437Y062386
X052437
X048425Y060827
X045472
X044488Y052756
X055512Y048819
Y047441
X058661Y056299
X043701Y052756
X042913
X042126
X041339
X031496Y051378
X030315
X029134
X037795Y060827
Y062205
X02185Y062402
X015157Y062205
Y06063
Y059055
Y057677
X013189Y05415
Y05315
Y05215
X012968Y049228
X013968
X014969
X015969
X016968
X017968
X018968
X019969
X020968
Y048228
X019969
X018968
X017968
X016968
X015969
X014969
X013968
X012968
X025
X026181
X026181Y049606
X025
X025591Y051378
X026772
X027953
X024213
X011968Y049228
Y048228
X010969
Y049228
X009969
Y048228
X008968
Y049228
X007969
Y048228
X006969
Y049228
X005968
Y048228
X004969
Y049228
X003968
Y048228
X002968
Y049228
X001969
Y048228
X002362Y051378
X003543
X002953Y05748
X002953Y059055
X002953Y06063
X002953Y062205
X000984Y062008
Y060827
X009055Y06063
Y062205
Y059055
Y057677
X008968Y070472
X009969
X010969
X011968
Y071472
X010969
X009969
X008968
X007969
Y070472
X006969
Y071472
X005968
Y070472
X004969
Y071472
X003968
Y070472
X002968
Y071472
X001969
Y070472
X002362Y073622
X003543
X013189Y074394
Y075394
Y076394
X012968Y071472
X013968
X014969
X015969
X016968
X017968
X018968
X019969
X020968
Y070472
X019969
X018968
X017968
X016968
X015969
X014969
X013968
X012968
X025
X026181
X026181Y07185
X025
X025591Y073622
X026772
X027953
X024213
X026181Y066339
X027362
X027165Y064173
X025984
X024803
X022047Y06437
X022835Y065157
X022047Y065945
X019094Y063976
X028346Y064173
X029134Y073622
X030315
X031496
X037992Y073425
Y072047
X054331Y06752
X056299
X055437Y064386
Y063386
X052388Y063386
X052437Y064386
X059843Y062992
X060827Y079528
Y080906
X038189Y082677
Y084055
X028346Y086417
X027165
X025984
X024803
X022047Y086614
X022835Y087402
X022047Y088189
X02185Y084646
X019094Y08622
X015157Y084449
Y082874
Y081299
Y079921
X026181Y088583
X027362
X009055Y084449
Y082874
Y081299
Y079921
X002953Y079724
X002953Y081299
X002953Y082874
X002953Y084449
X000984Y084252
Y083071
T05
X017913Y012795
Y014764
X052165
Y012795
X046555Y024539
X043602
X012303
X00935
Y032531
Y034516
X012303
Y032531
X021063Y035827
Y037795
X043602Y034516
Y032531
X046555
Y034516
X055315Y035827
Y037795
X052165Y058465
Y060433
X012205Y064764
X010236
X007283
X005315
X015157
X017126
X043602Y070209
X046555
Y078201
Y080185
X055315Y081496
Y083465
X043602Y080185
Y078201
X017126Y087008
X015157
X012205
X010236
X007283
X005315
T06
X049803Y025591
X051772
X05374
X055709
X021457
X019488
X01752
X015551
X049803Y07126
X051772
X05374
X055709
T07
X025Y012795
X059252
X056299Y029134
X049213Y027756
X022047Y029134
X014961Y027756
X010236Y038189
X015945Y034252
X044488Y038189
X050197Y034252
X059252Y058465
X056299Y074803
X049213Y073425
X050197Y079921
X044488Y083858
T08
X004567Y001969
X014567Y007224
X024567Y001969
X038819
X048819Y007224
X058819Y001969
X004567Y041968
X014567Y04002
X024567Y041968
X038819
X048819Y04002
X058819Y041968
Y047638
X048819Y052894
X038819Y047638
X030512Y049016
X001969Y065551
X030512
Y07126
X048819Y085689
X058819Y087638
X038819
X030512Y087795
X001969
M30
