G04*
G04 #@! TF.GenerationSoftware,Altium Limited,Altium Designer,18.0.11 (651)*
G04*
G04 Layer_Color=8388736*
%FSLAX24Y24*%
%MOIN*%
G70*
G01*
G75*
%ADD81R,0.0513X0.0552*%
%ADD82R,0.0218X0.0710*%
%ADD83R,0.0552X0.0513*%
%ADD84R,0.0982X0.0430*%
%ADD85R,0.0513X0.0316*%
%ADD86R,0.0552X0.0552*%
%ADD87R,0.0552X0.1458*%
%ADD88R,0.0710X0.0218*%
%ADD89R,0.0560X0.0438*%
%ADD90R,0.0438X0.0560*%
%ADD91R,0.0631X0.0474*%
%ADD92R,0.0355X0.0178*%
%ADD93R,0.0631X0.1222*%
%ADD94R,0.0430X0.0982*%
%ADD95R,0.0867X0.1655*%
%ADD96R,0.1458X0.0552*%
%ADD97R,0.0552X0.0552*%
%ADD98R,0.0789X0.0395*%
%ADD99R,0.0474X0.0474*%
%ADD100C,0.0671*%
%ADD101C,0.1458*%
%ADD102C,0.0552*%
%ADD103R,0.0867X0.0867*%
%ADD104C,0.0867*%
%ADD105C,0.0080*%
%ADD106R,0.0867X0.0867*%
%ADD107R,0.0671X0.0671*%
%ADD108C,0.0680*%
%ADD109R,0.0680X0.0680*%
%ADD110C,0.0946*%
%ADD111R,0.0946X0.0946*%
%ADD112C,0.0280*%
%ADD113R,0.0671X0.0671*%
%ADD114R,0.0867X0.0867*%
D81*
X47500Y10039D02*
D03*
X48169D02*
D03*
X49075D02*
D03*
X49744D02*
D03*
X50650Y9055D02*
D03*
X51319D02*
D03*
X40020Y8858D02*
D03*
X40689D02*
D03*
X59498Y3937D02*
D03*
X58829D02*
D03*
X46319Y5118D02*
D03*
X46988D02*
D03*
X39961Y18504D02*
D03*
X39291D02*
D03*
X43760Y5118D02*
D03*
X44429D02*
D03*
X48484Y17323D02*
D03*
X49154D02*
D03*
X57146Y31496D02*
D03*
X57815D02*
D03*
X59498Y4724D02*
D03*
X58829D02*
D03*
X42264Y984D02*
D03*
X41595D02*
D03*
X41339Y4331D02*
D03*
X40669D02*
D03*
X37343Y6890D02*
D03*
X36673D02*
D03*
X46319Y5906D02*
D03*
X46988D02*
D03*
X51240Y30709D02*
D03*
X51909D02*
D03*
X57146Y32677D02*
D03*
X57815D02*
D03*
X39035Y31102D02*
D03*
X39705D02*
D03*
X42323Y25787D02*
D03*
X42992D02*
D03*
X38642Y12402D02*
D03*
X39311D02*
D03*
X47500Y55709D02*
D03*
X48169D02*
D03*
X49075D02*
D03*
X49744D02*
D03*
X50650Y54724D02*
D03*
X51319D02*
D03*
X40020Y54528D02*
D03*
X40689D02*
D03*
X59498Y49606D02*
D03*
X58829D02*
D03*
X46319Y50787D02*
D03*
X46988D02*
D03*
X39961Y64173D02*
D03*
X39291D02*
D03*
X43760Y50787D02*
D03*
X44429D02*
D03*
X48484Y62992D02*
D03*
X49154D02*
D03*
X57146Y77165D02*
D03*
X57815D02*
D03*
X59498Y50394D02*
D03*
X58829D02*
D03*
X42264Y46654D02*
D03*
X41595D02*
D03*
X41339Y50000D02*
D03*
X40669D02*
D03*
X37343Y52559D02*
D03*
X36673D02*
D03*
X46319Y51575D02*
D03*
X46988D02*
D03*
X51240Y76378D02*
D03*
X51909D02*
D03*
X57146Y78346D02*
D03*
X57815D02*
D03*
X39035Y76772D02*
D03*
X39705D02*
D03*
X42323Y71457D02*
D03*
X42992D02*
D03*
X38642Y58071D02*
D03*
X39311D02*
D03*
X13248Y10039D02*
D03*
X13917D02*
D03*
X14823D02*
D03*
X15492D02*
D03*
X16398Y9055D02*
D03*
X17067D02*
D03*
X5768Y8858D02*
D03*
X6437D02*
D03*
X25246Y3937D02*
D03*
X24577D02*
D03*
X12067Y5118D02*
D03*
X12736D02*
D03*
X5709Y18504D02*
D03*
X5039D02*
D03*
X9508Y5118D02*
D03*
X10177D02*
D03*
X14232Y17323D02*
D03*
X14902D02*
D03*
X22894Y31496D02*
D03*
X23563D02*
D03*
X25246Y4724D02*
D03*
X24577D02*
D03*
X8012Y984D02*
D03*
X7343D02*
D03*
X7087Y4331D02*
D03*
X6417D02*
D03*
X3091Y6890D02*
D03*
X2421D02*
D03*
X12067Y5906D02*
D03*
X12736D02*
D03*
X16988Y30709D02*
D03*
X17657D02*
D03*
X22894Y32677D02*
D03*
X23563D02*
D03*
X4783Y31102D02*
D03*
X5453D02*
D03*
X8071Y25787D02*
D03*
X8740D02*
D03*
X4390Y12402D02*
D03*
X5059D02*
D03*
X21535Y54724D02*
D03*
X20866D02*
D03*
X30709Y60433D02*
D03*
X31378D02*
D03*
X18760Y57677D02*
D03*
X19429D02*
D03*
X10492Y56299D02*
D03*
X11161D02*
D03*
X4449Y56102D02*
D03*
X5118D02*
D03*
X2894Y55709D02*
D03*
X2224D02*
D03*
X5768Y51772D02*
D03*
X6437D02*
D03*
X15945Y56102D02*
D03*
X16614D02*
D03*
X21535Y76968D02*
D03*
X20866D02*
D03*
X30709Y82677D02*
D03*
X31378D02*
D03*
X18760Y79921D02*
D03*
X19429D02*
D03*
X10492Y78543D02*
D03*
X11161D02*
D03*
X4449Y78346D02*
D03*
X5118D02*
D03*
X2894Y77953D02*
D03*
X2224D02*
D03*
X5768Y74016D02*
D03*
X6437D02*
D03*
X15945Y78346D02*
D03*
X16614D02*
D03*
D82*
X43776Y1890D02*
D03*
X44276D02*
D03*
X44776D02*
D03*
X45276D02*
D03*
X45776D02*
D03*
X46276D02*
D03*
X46776D02*
D03*
Y4016D02*
D03*
X46276D02*
D03*
X45776D02*
D03*
X45276D02*
D03*
X44776D02*
D03*
X44276D02*
D03*
X43776D02*
D03*
Y47559D02*
D03*
X44276D02*
D03*
X44776D02*
D03*
X45276D02*
D03*
X45776D02*
D03*
X46276D02*
D03*
X46776D02*
D03*
Y49685D02*
D03*
X46276D02*
D03*
X45776D02*
D03*
X45276D02*
D03*
X44776D02*
D03*
X44276D02*
D03*
X43776D02*
D03*
X9524Y1890D02*
D03*
X10024D02*
D03*
X10524D02*
D03*
X11024D02*
D03*
X11524D02*
D03*
X12024D02*
D03*
X12524D02*
D03*
Y4016D02*
D03*
X12024D02*
D03*
X11524D02*
D03*
X11024D02*
D03*
X10524D02*
D03*
X10024D02*
D03*
X9524D02*
D03*
D83*
X48819Y2815D02*
D03*
Y3484D02*
D03*
X37205Y4193D02*
D03*
Y4862D02*
D03*
X45079Y18169D02*
D03*
Y18839D02*
D03*
X55315Y7539D02*
D03*
Y8209D02*
D03*
X42323Y4390D02*
D03*
Y5059D02*
D03*
X35630Y7933D02*
D03*
Y8602D02*
D03*
Y6043D02*
D03*
Y5374D02*
D03*
X47638Y19232D02*
D03*
Y18563D02*
D03*
X41811Y17264D02*
D03*
Y16594D02*
D03*
X46260Y18760D02*
D03*
Y19429D02*
D03*
X44095Y19626D02*
D03*
Y18957D02*
D03*
X48425Y18563D02*
D03*
Y19232D02*
D03*
X42126Y8720D02*
D03*
Y9390D02*
D03*
X41142Y27618D02*
D03*
Y28287D02*
D03*
X50394Y18583D02*
D03*
Y17913D02*
D03*
X50787Y3484D02*
D03*
Y2815D02*
D03*
X52756Y30768D02*
D03*
Y31437D02*
D03*
X42520Y19626D02*
D03*
Y18957D02*
D03*
X48819Y48484D02*
D03*
Y49154D02*
D03*
X37205Y49862D02*
D03*
Y50532D02*
D03*
X45079Y63839D02*
D03*
Y64508D02*
D03*
X55315Y53209D02*
D03*
Y53878D02*
D03*
X42323Y50059D02*
D03*
Y50728D02*
D03*
X35630Y53602D02*
D03*
Y54272D02*
D03*
Y51713D02*
D03*
Y51043D02*
D03*
X47638Y64902D02*
D03*
Y64232D02*
D03*
X41811Y62933D02*
D03*
Y62264D02*
D03*
X46260Y64429D02*
D03*
Y65098D02*
D03*
X44095Y65295D02*
D03*
Y64626D02*
D03*
X48425Y64232D02*
D03*
Y64902D02*
D03*
X42126Y54390D02*
D03*
Y55059D02*
D03*
X41142Y73287D02*
D03*
Y73957D02*
D03*
X50394Y64252D02*
D03*
Y63583D02*
D03*
X50787Y49154D02*
D03*
Y48484D02*
D03*
X52756Y76437D02*
D03*
Y77106D02*
D03*
X42520Y65295D02*
D03*
Y64626D02*
D03*
X14567Y2815D02*
D03*
Y3484D02*
D03*
X2953Y4193D02*
D03*
Y4862D02*
D03*
X10827Y18169D02*
D03*
Y18839D02*
D03*
X21063Y7539D02*
D03*
Y8209D02*
D03*
X8071Y4390D02*
D03*
Y5059D02*
D03*
X1378Y7933D02*
D03*
Y8602D02*
D03*
Y6043D02*
D03*
Y5374D02*
D03*
X13386Y19232D02*
D03*
Y18563D02*
D03*
X7559Y17264D02*
D03*
Y16594D02*
D03*
X12008Y18760D02*
D03*
Y19429D02*
D03*
X9843Y19626D02*
D03*
Y18957D02*
D03*
X14173Y18563D02*
D03*
Y19232D02*
D03*
X7874Y8720D02*
D03*
Y9390D02*
D03*
X6890Y27618D02*
D03*
Y28287D02*
D03*
X16142Y18583D02*
D03*
Y17913D02*
D03*
X16535Y3484D02*
D03*
Y2815D02*
D03*
X18504Y30768D02*
D03*
Y31437D02*
D03*
X8268Y19626D02*
D03*
Y18957D02*
D03*
X19685Y55650D02*
D03*
Y54980D02*
D03*
X20276Y64823D02*
D03*
Y65492D02*
D03*
X22835Y62126D02*
D03*
Y62795D02*
D03*
X984Y57362D02*
D03*
Y56693D02*
D03*
X19685Y77894D02*
D03*
Y77224D02*
D03*
X20276Y87067D02*
D03*
Y87736D02*
D03*
X22835Y84370D02*
D03*
Y85039D02*
D03*
X984Y79606D02*
D03*
Y78937D02*
D03*
D84*
X61220Y3346D02*
D03*
X62319Y4134D02*
D03*
X61220Y4921D02*
D03*
X62319Y5709D02*
D03*
X61220Y6496D02*
D03*
X62319Y7283D02*
D03*
X61220Y8071D02*
D03*
X62319Y8858D02*
D03*
X61220Y9646D02*
D03*
X62319Y10433D02*
D03*
X53657D02*
D03*
X52559Y9646D02*
D03*
X53657Y8858D02*
D03*
X52559Y8071D02*
D03*
X53657Y7283D02*
D03*
X52559Y6496D02*
D03*
X53657Y5709D02*
D03*
X52559Y4921D02*
D03*
X53657Y4134D02*
D03*
X52559Y3346D02*
D03*
X61220Y49016D02*
D03*
X62319Y49803D02*
D03*
X61220Y50591D02*
D03*
X62319Y51378D02*
D03*
X61220Y52165D02*
D03*
X62319Y52953D02*
D03*
X61220Y53740D02*
D03*
X62319Y54528D02*
D03*
X61220Y55315D02*
D03*
X62319Y56102D02*
D03*
X53657D02*
D03*
X52559Y55315D02*
D03*
X53657Y54528D02*
D03*
X52559Y53740D02*
D03*
X53657Y52953D02*
D03*
X52559Y52165D02*
D03*
X53657Y51378D02*
D03*
X52559Y50591D02*
D03*
X53657Y49803D02*
D03*
X52559Y49016D02*
D03*
X26969Y3346D02*
D03*
X28067Y4134D02*
D03*
X26969Y4921D02*
D03*
X28067Y5709D02*
D03*
X26969Y6496D02*
D03*
X28067Y7283D02*
D03*
X26969Y8071D02*
D03*
X28067Y8858D02*
D03*
X26969Y9646D02*
D03*
X28067Y10433D02*
D03*
X19406D02*
D03*
X18307Y9646D02*
D03*
X19406Y8858D02*
D03*
X18307Y8071D02*
D03*
X19406Y7283D02*
D03*
X18307Y6496D02*
D03*
X19406Y5709D02*
D03*
X18307Y4921D02*
D03*
X19406Y4134D02*
D03*
X18307Y3346D02*
D03*
D85*
X47094Y17106D02*
D03*
Y16732D02*
D03*
Y16358D02*
D03*
X46063D02*
D03*
Y16732D02*
D03*
Y17106D02*
D03*
X47094Y62776D02*
D03*
Y62402D02*
D03*
Y62028D02*
D03*
X46063D02*
D03*
Y62402D02*
D03*
Y62776D02*
D03*
X12843Y17106D02*
D03*
Y16732D02*
D03*
Y16358D02*
D03*
X11811D02*
D03*
Y16732D02*
D03*
Y17106D02*
D03*
D86*
X56388Y9370D02*
D03*
Y8465D02*
D03*
Y7559D02*
D03*
Y55039D02*
D03*
Y54134D02*
D03*
Y53228D02*
D03*
X22136Y9370D02*
D03*
Y8465D02*
D03*
Y7559D02*
D03*
D87*
X58789Y8465D02*
D03*
Y54134D02*
D03*
X24537Y8465D02*
D03*
D88*
X38858Y7949D02*
D03*
Y8449D02*
D03*
Y8949D02*
D03*
Y9449D02*
D03*
Y9949D02*
D03*
Y10449D02*
D03*
Y10949D02*
D03*
X36732D02*
D03*
Y10449D02*
D03*
Y9949D02*
D03*
Y9449D02*
D03*
Y8949D02*
D03*
Y8449D02*
D03*
Y7949D02*
D03*
X38858Y53618D02*
D03*
Y54118D02*
D03*
Y54618D02*
D03*
Y55118D02*
D03*
Y55618D02*
D03*
Y56118D02*
D03*
Y56618D02*
D03*
X36732D02*
D03*
Y56118D02*
D03*
Y55618D02*
D03*
Y55118D02*
D03*
Y54618D02*
D03*
Y54118D02*
D03*
Y53618D02*
D03*
X4606Y7949D02*
D03*
Y8449D02*
D03*
Y8949D02*
D03*
Y9449D02*
D03*
Y9949D02*
D03*
Y10449D02*
D03*
Y10949D02*
D03*
X2480D02*
D03*
Y10449D02*
D03*
Y9949D02*
D03*
Y9449D02*
D03*
Y8949D02*
D03*
Y8449D02*
D03*
Y7949D02*
D03*
D89*
X47047Y13136D02*
D03*
Y14423D02*
D03*
X41535Y1915D02*
D03*
Y3203D02*
D03*
X42323Y1915D02*
D03*
Y3203D02*
D03*
X44370Y13136D02*
D03*
Y14423D02*
D03*
X43583Y13136D02*
D03*
Y14423D02*
D03*
X49803Y3793D02*
D03*
Y2506D02*
D03*
X47047Y58805D02*
D03*
Y60093D02*
D03*
X41535Y47585D02*
D03*
Y48872D02*
D03*
X42323Y47585D02*
D03*
Y48872D02*
D03*
X44370Y58805D02*
D03*
Y60093D02*
D03*
X43583Y58805D02*
D03*
Y60093D02*
D03*
X49803Y49463D02*
D03*
Y48175D02*
D03*
X12795Y13136D02*
D03*
Y14423D02*
D03*
X7283Y1915D02*
D03*
Y3203D02*
D03*
X8071Y1915D02*
D03*
Y3203D02*
D03*
X10118Y13136D02*
D03*
Y14423D02*
D03*
X9331Y13136D02*
D03*
Y14423D02*
D03*
X15551Y3793D02*
D03*
Y2506D02*
D03*
D90*
X39907Y19685D02*
D03*
X41195D02*
D03*
X39620Y4921D02*
D03*
X38333D02*
D03*
X39620Y5906D02*
D03*
X38333D02*
D03*
X55709Y31496D02*
D03*
X54421D02*
D03*
X39907Y65354D02*
D03*
X41195D02*
D03*
X39620Y50591D02*
D03*
X38333D02*
D03*
X39620Y51575D02*
D03*
X38333D02*
D03*
X55709Y77165D02*
D03*
X54421D02*
D03*
X5656Y19685D02*
D03*
X6943D02*
D03*
X5368Y4921D02*
D03*
X4081D02*
D03*
X5368Y5906D02*
D03*
X4081D02*
D03*
X21457Y31496D02*
D03*
X20169D02*
D03*
D91*
X42677Y28327D02*
D03*
Y27579D02*
D03*
X43543Y27953D02*
D03*
X42677Y73996D02*
D03*
Y73248D02*
D03*
X43543Y73622D02*
D03*
X8425Y28327D02*
D03*
Y27579D02*
D03*
X9291Y27953D02*
D03*
X17362Y57677D02*
D03*
X16496Y57303D02*
D03*
Y58051D02*
D03*
X11260Y57677D02*
D03*
X10394Y57303D02*
D03*
Y58051D02*
D03*
X5157Y57677D02*
D03*
X4291Y57303D02*
D03*
Y58051D02*
D03*
X17362Y79921D02*
D03*
X16496Y79547D02*
D03*
Y80295D02*
D03*
X11260Y79921D02*
D03*
X10394Y79547D02*
D03*
Y80295D02*
D03*
X5157Y79921D02*
D03*
X4291Y79547D02*
D03*
Y80295D02*
D03*
D92*
X44882Y17116D02*
D03*
Y16860D02*
D03*
Y16604D02*
D03*
Y16348D02*
D03*
X43071D02*
D03*
Y16604D02*
D03*
Y16860D02*
D03*
Y17116D02*
D03*
X44882Y62785D02*
D03*
Y62530D02*
D03*
Y62274D02*
D03*
Y62018D02*
D03*
X43071D02*
D03*
Y62274D02*
D03*
Y62530D02*
D03*
Y62785D02*
D03*
X10630Y17116D02*
D03*
Y16860D02*
D03*
Y16604D02*
D03*
Y16348D02*
D03*
X8819D02*
D03*
Y16604D02*
D03*
Y16860D02*
D03*
Y17116D02*
D03*
D93*
X45236Y9252D02*
D03*
X44134D02*
D03*
X45236Y54921D02*
D03*
X44134D02*
D03*
X10984Y9252D02*
D03*
X9882D02*
D03*
D94*
X31299Y61656D02*
D03*
X30512Y62754D02*
D03*
X29724Y61656D02*
D03*
X28937Y62754D02*
D03*
X28150Y61656D02*
D03*
X27362Y62754D02*
D03*
X26575Y61656D02*
D03*
X25787Y62754D02*
D03*
X25000Y61656D02*
D03*
X24213Y62754D02*
D03*
Y54093D02*
D03*
X25000Y52994D02*
D03*
X25787Y54093D02*
D03*
X26575Y52994D02*
D03*
X27362Y54093D02*
D03*
X28150Y52994D02*
D03*
X28937Y54093D02*
D03*
X29724Y52994D02*
D03*
X30512Y54093D02*
D03*
X31299Y52994D02*
D03*
Y83900D02*
D03*
X30512Y84998D02*
D03*
X29724Y83900D02*
D03*
X28937Y84998D02*
D03*
X28150Y83900D02*
D03*
X27362Y84998D02*
D03*
X26575Y83900D02*
D03*
X25787Y84998D02*
D03*
X25000Y83900D02*
D03*
X24213Y84998D02*
D03*
Y76337D02*
D03*
X25000Y75238D02*
D03*
X25787Y76337D02*
D03*
X26575Y75238D02*
D03*
X27362Y76337D02*
D03*
X28150Y75238D02*
D03*
X28937Y76337D02*
D03*
X29724Y75238D02*
D03*
X30512Y76337D02*
D03*
X31299Y75238D02*
D03*
D95*
X10236Y51949D02*
D03*
Y54744D02*
D03*
Y74193D02*
D03*
Y76988D02*
D03*
D96*
X20866Y51358D02*
D03*
Y73602D02*
D03*
D97*
X19961Y53760D02*
D03*
X20866D02*
D03*
X21772D02*
D03*
X19961Y76004D02*
D03*
X20866D02*
D03*
X21772D02*
D03*
X39870Y33268D02*
D03*
Y24606D02*
D03*
Y78937D02*
D03*
Y70276D02*
D03*
X5618Y33268D02*
D03*
Y24606D02*
D03*
X20760Y57677D02*
D03*
X12492Y57087D02*
D03*
X6390Y56693D02*
D03*
X1075Y53543D02*
D03*
X20760Y79921D02*
D03*
X12492Y79331D02*
D03*
X6390Y78937D02*
D03*
X1075Y75787D02*
D03*
D98*
X19291Y59130D02*
D03*
Y60130D02*
D03*
Y61130D02*
D03*
Y62130D02*
D03*
X16535D02*
D03*
Y61130D02*
D03*
Y60130D02*
D03*
Y59130D02*
D03*
X13189D02*
D03*
Y60130D02*
D03*
Y61130D02*
D03*
Y62130D02*
D03*
X10433D02*
D03*
Y61130D02*
D03*
Y60130D02*
D03*
Y59130D02*
D03*
X7087D02*
D03*
Y60130D02*
D03*
Y61130D02*
D03*
Y62130D02*
D03*
X4331D02*
D03*
Y61130D02*
D03*
Y60130D02*
D03*
Y59130D02*
D03*
X19291Y81374D02*
D03*
Y82374D02*
D03*
Y83374D02*
D03*
Y84374D02*
D03*
X16535D02*
D03*
Y83374D02*
D03*
Y82374D02*
D03*
Y81374D02*
D03*
X13189D02*
D03*
Y82374D02*
D03*
Y83374D02*
D03*
Y84374D02*
D03*
X10433D02*
D03*
Y83374D02*
D03*
Y82374D02*
D03*
Y81374D02*
D03*
X7087D02*
D03*
Y82374D02*
D03*
Y83374D02*
D03*
Y84374D02*
D03*
X4331D02*
D03*
Y83374D02*
D03*
Y82374D02*
D03*
Y81374D02*
D03*
D99*
X7362Y52756D02*
D03*
Y54331D02*
D03*
X4843D02*
D03*
Y52756D02*
D03*
X7362Y75000D02*
D03*
Y76575D02*
D03*
X4843D02*
D03*
Y75000D02*
D03*
D100*
X55512Y3150D02*
D03*
X60827Y35236D02*
D03*
X38189Y38386D02*
D03*
X37795Y16535D02*
D03*
X60827Y33858D02*
D03*
X55512Y1772D02*
D03*
X38189Y37008D02*
D03*
X37795Y15157D02*
D03*
X37992Y27756D02*
D03*
X61220Y1969D02*
D03*
X37992Y26378D02*
D03*
X62402Y787D02*
D03*
X45472Y15157D02*
D03*
X48425D02*
D03*
X59843Y5906D02*
D03*
Y7283D02*
D03*
Y8661D02*
D03*
X58661Y10630D02*
D03*
X59843Y17323D02*
D03*
Y16142D02*
D03*
X44488Y7087D02*
D03*
X43701D02*
D03*
X42913D02*
D03*
X42126D02*
D03*
X52388Y17717D02*
D03*
X52437Y18717D02*
D03*
X55437D02*
D03*
Y17717D02*
D03*
Y16717D02*
D03*
X55512Y48819D02*
D03*
X60827Y80906D02*
D03*
X38189Y84055D02*
D03*
X37795Y62205D02*
D03*
X60827Y79528D02*
D03*
X55512Y47441D02*
D03*
X38189Y82677D02*
D03*
X37795Y60827D02*
D03*
X37992Y73425D02*
D03*
X61220Y47638D02*
D03*
X37992Y72047D02*
D03*
X62402Y46457D02*
D03*
X45472Y60827D02*
D03*
X48425D02*
D03*
X59843Y51575D02*
D03*
Y52953D02*
D03*
Y54331D02*
D03*
X58661Y56299D02*
D03*
X59843Y62992D02*
D03*
Y61811D02*
D03*
X44488Y52756D02*
D03*
X43701D02*
D03*
X42913D02*
D03*
X42126D02*
D03*
X52388Y63386D02*
D03*
X52437Y64386D02*
D03*
X55437D02*
D03*
Y63386D02*
D03*
Y62386D02*
D03*
X21260Y3150D02*
D03*
X26575Y35236D02*
D03*
X3937Y38386D02*
D03*
X3543Y16535D02*
D03*
X26575Y33858D02*
D03*
X21260Y1772D02*
D03*
X3937Y37008D02*
D03*
X3543Y15157D02*
D03*
X3740Y27756D02*
D03*
X26969Y1969D02*
D03*
X3740Y26378D02*
D03*
X28150Y787D02*
D03*
X11220Y15157D02*
D03*
X14173D02*
D03*
X25591Y5906D02*
D03*
Y7283D02*
D03*
Y8661D02*
D03*
X24409Y10630D02*
D03*
X25591Y17323D02*
D03*
Y16142D02*
D03*
X10236Y7087D02*
D03*
X9449D02*
D03*
X8661D02*
D03*
X7874D02*
D03*
X18136Y17717D02*
D03*
X18185Y18717D02*
D03*
X21185D02*
D03*
Y17717D02*
D03*
Y16717D02*
D03*
X20968Y48228D02*
D03*
X19969Y49228D02*
D03*
Y48228D02*
D03*
X18968Y49228D02*
D03*
Y48228D02*
D03*
X17968Y49228D02*
D03*
Y48228D02*
D03*
X16968Y49228D02*
D03*
Y48228D02*
D03*
X15969Y49228D02*
D03*
Y48228D02*
D03*
X14969Y49228D02*
D03*
Y48228D02*
D03*
X13968Y49228D02*
D03*
Y48228D02*
D03*
X12968Y49228D02*
D03*
Y48228D02*
D03*
X11968Y49228D02*
D03*
Y48228D02*
D03*
X10969Y49228D02*
D03*
Y48228D02*
D03*
X9969Y49228D02*
D03*
Y48228D02*
D03*
X8968Y49228D02*
D03*
Y48228D02*
D03*
X7969Y49228D02*
D03*
Y48228D02*
D03*
X6969Y49228D02*
D03*
Y48228D02*
D03*
X5968Y49228D02*
D03*
Y48228D02*
D03*
X4969Y49228D02*
D03*
Y48228D02*
D03*
X3968Y49228D02*
D03*
Y48228D02*
D03*
X2968Y49228D02*
D03*
Y48228D02*
D03*
X1969Y49228D02*
D03*
Y48228D02*
D03*
X984Y60827D02*
D03*
Y62008D02*
D03*
X13189Y53150D02*
D03*
Y54150D02*
D03*
X2953Y60630D02*
D03*
X3543Y51378D02*
D03*
X25000Y48228D02*
D03*
Y49606D02*
D03*
X2362Y51378D02*
D03*
X26181Y48228D02*
D03*
X26181Y49606D02*
D03*
X31496Y51378D02*
D03*
X30315D02*
D03*
X29134D02*
D03*
X21850Y62402D02*
D03*
X27362Y66339D02*
D03*
X26181D02*
D03*
X15157Y57677D02*
D03*
Y59055D02*
D03*
Y60630D02*
D03*
Y62205D02*
D03*
X9055D02*
D03*
Y60630D02*
D03*
Y59055D02*
D03*
Y57677D02*
D03*
X2953Y57480D02*
D03*
X2953Y59055D02*
D03*
X19094Y63976D02*
D03*
X2953Y62205D02*
D03*
X28346Y64173D02*
D03*
X27953Y51378D02*
D03*
X27165Y64173D02*
D03*
X26772Y51378D02*
D03*
X25984Y64173D02*
D03*
X24803D02*
D03*
X25591Y51378D02*
D03*
X24213D02*
D03*
X22047Y64370D02*
D03*
X22835Y65157D02*
D03*
X20968Y70472D02*
D03*
X19969Y71472D02*
D03*
Y70472D02*
D03*
X18968Y71472D02*
D03*
Y70472D02*
D03*
X17968Y71472D02*
D03*
Y70472D02*
D03*
X16968Y71472D02*
D03*
Y70472D02*
D03*
X15969Y71472D02*
D03*
Y70472D02*
D03*
X14969Y71472D02*
D03*
Y70472D02*
D03*
X13968Y71472D02*
D03*
Y70472D02*
D03*
X12968Y71472D02*
D03*
Y70472D02*
D03*
X11968Y71472D02*
D03*
Y70472D02*
D03*
X10969Y71472D02*
D03*
Y70472D02*
D03*
X9969Y71472D02*
D03*
Y70472D02*
D03*
X8968Y71472D02*
D03*
Y70472D02*
D03*
X7969Y71472D02*
D03*
Y70472D02*
D03*
X6969Y71472D02*
D03*
Y70472D02*
D03*
X5968Y71472D02*
D03*
Y70472D02*
D03*
X4969Y71472D02*
D03*
Y70472D02*
D03*
X3968Y71472D02*
D03*
Y70472D02*
D03*
X2968Y71472D02*
D03*
Y70472D02*
D03*
X1969Y71472D02*
D03*
Y70472D02*
D03*
X984Y83071D02*
D03*
Y84252D02*
D03*
X13189Y75394D02*
D03*
Y76394D02*
D03*
X2953Y82874D02*
D03*
X3543Y73622D02*
D03*
X25000Y70472D02*
D03*
Y71850D02*
D03*
X2362Y73622D02*
D03*
X26181Y70472D02*
D03*
X26181Y71850D02*
D03*
X31496Y73622D02*
D03*
X30315D02*
D03*
X29134D02*
D03*
X21850Y84646D02*
D03*
X27362Y88583D02*
D03*
X26181D02*
D03*
X15157Y79921D02*
D03*
Y81299D02*
D03*
Y82874D02*
D03*
Y84449D02*
D03*
X9055D02*
D03*
Y82874D02*
D03*
Y81299D02*
D03*
Y79921D02*
D03*
X2953Y79724D02*
D03*
X2953Y81299D02*
D03*
X19094Y86220D02*
D03*
X2953Y84449D02*
D03*
X28346Y86417D02*
D03*
X27953Y73622D02*
D03*
X27165Y86417D02*
D03*
X26772Y73622D02*
D03*
X25984Y86417D02*
D03*
X24803D02*
D03*
X25591Y73622D02*
D03*
X24213D02*
D03*
X22047Y86614D02*
D03*
X22835Y87402D02*
D03*
D101*
X50197Y34252D02*
D03*
X56299Y29134D02*
D03*
X59252Y12795D02*
D03*
X44488Y38189D02*
D03*
X49213Y27756D02*
D03*
X50197Y79921D02*
D03*
X56299Y74803D02*
D03*
X59252Y58465D02*
D03*
X44488Y83858D02*
D03*
X49213Y73425D02*
D03*
X15945Y34252D02*
D03*
X22047Y29134D02*
D03*
X25000Y12795D02*
D03*
X10236Y38189D02*
D03*
X14961Y27756D02*
D03*
D102*
X38870Y33268D02*
D03*
Y24606D02*
D03*
Y78937D02*
D03*
Y70276D02*
D03*
X4618Y33268D02*
D03*
Y24606D02*
D03*
X21760Y57677D02*
D03*
X13492Y57087D02*
D03*
X7390Y56693D02*
D03*
X2075Y53543D02*
D03*
X21760Y79921D02*
D03*
X13492Y79331D02*
D03*
X7390Y78937D02*
D03*
X2075Y75787D02*
D03*
D103*
X43602Y24539D02*
D03*
X52165Y12795D02*
D03*
X55315Y37795D02*
D03*
X43602Y70209D02*
D03*
X52165Y58465D02*
D03*
X55315Y83465D02*
D03*
X9350Y24539D02*
D03*
X17913Y12795D02*
D03*
X21063Y37795D02*
D03*
D104*
X46555Y24539D02*
D03*
X43602Y32531D02*
D03*
X46555D02*
D03*
X43602Y34516D02*
D03*
X46555D02*
D03*
X56299Y21850D02*
D03*
X52165Y14764D02*
D03*
X55315Y35827D02*
D03*
X46555Y70209D02*
D03*
X43602Y78201D02*
D03*
X46555D02*
D03*
X43602Y80185D02*
D03*
X46555D02*
D03*
X56299Y67520D02*
D03*
X52165Y60433D02*
D03*
X55315Y81496D02*
D03*
X12303Y24539D02*
D03*
X9350Y32531D02*
D03*
X12303D02*
D03*
X9350Y34516D02*
D03*
X12303D02*
D03*
X22047Y21850D02*
D03*
X17913Y14764D02*
D03*
X21063Y35827D02*
D03*
X7283Y64764D02*
D03*
X12205D02*
D03*
X17126D02*
D03*
X7283Y87008D02*
D03*
X12205D02*
D03*
X17126D02*
D03*
D105*
X48819Y40020D02*
D03*
Y7224D02*
D03*
X38819Y1969D02*
D03*
X58819D02*
D03*
Y41968D02*
D03*
X38819D02*
D03*
X48819Y85689D02*
D03*
Y52894D02*
D03*
X38819Y47638D02*
D03*
X58819D02*
D03*
Y87638D02*
D03*
X38819D02*
D03*
X14567Y40020D02*
D03*
Y7224D02*
D03*
X4567Y1969D02*
D03*
X24567D02*
D03*
Y41968D02*
D03*
X4567D02*
D03*
X30512Y49016D02*
D03*
X1969Y65551D02*
D03*
X30512D02*
D03*
Y71260D02*
D03*
X1969Y87795D02*
D03*
X30512D02*
D03*
D106*
X54331Y21850D02*
D03*
Y67520D02*
D03*
X20079Y21850D02*
D03*
D107*
X41339Y7087D02*
D03*
X52437Y16717D02*
D03*
X41339Y52756D02*
D03*
X52437Y62386D02*
D03*
X7087Y7087D02*
D03*
X18185Y16717D02*
D03*
D108*
X42047Y10827D02*
D03*
X45039D02*
D03*
X48032Y21850D02*
D03*
X42047Y56496D02*
D03*
X45039D02*
D03*
X48032Y67520D02*
D03*
X7795Y10827D02*
D03*
X10787D02*
D03*
X13780Y21850D02*
D03*
D109*
X42047D02*
D03*
Y67520D02*
D03*
X7795Y21850D02*
D03*
D110*
X49803Y25591D02*
D03*
X51772D02*
D03*
X53740D02*
D03*
X49803Y71260D02*
D03*
X51772D02*
D03*
X53740D02*
D03*
X15551Y25591D02*
D03*
X17520D02*
D03*
X19488D02*
D03*
D111*
X55709D02*
D03*
Y71260D02*
D03*
X21457Y25591D02*
D03*
D112*
X48425Y10827D02*
D03*
X50197Y31102D02*
D03*
X53687Y31156D02*
D03*
X40945Y1575D02*
D03*
X43110Y5118D02*
D03*
X40551Y3740D02*
D03*
X54724Y29331D02*
D03*
X53937Y28346D02*
D03*
X46260Y6693D02*
D03*
X42126Y10039D02*
D03*
X39764Y9646D02*
D03*
X35433Y10039D02*
D03*
X35827Y6890D02*
D03*
X35630Y7283D02*
D03*
X39961Y17913D02*
D03*
X39764Y10236D02*
D03*
X57677Y30512D02*
D03*
X53937Y4921D02*
D03*
X60433Y6496D02*
D03*
X45276Y2953D02*
D03*
X39961Y8268D02*
D03*
X41732Y6299D02*
D03*
X51575Y6890D02*
D03*
X45079Y12992D02*
D03*
X50591Y8268D02*
D03*
X35827Y9449D02*
D03*
Y11024D02*
D03*
X42913Y8661D02*
D03*
X46260Y8268D02*
D03*
X45276Y4724D02*
D03*
X40157Y5906D02*
D03*
X45472Y5118D02*
D03*
X48425Y56496D02*
D03*
X50197Y76772D02*
D03*
X53687Y76825D02*
D03*
X40945Y47244D02*
D03*
X43110Y50787D02*
D03*
X40551Y49409D02*
D03*
X54724Y75000D02*
D03*
X53937Y74016D02*
D03*
X46260Y52362D02*
D03*
X42126Y55709D02*
D03*
X39764Y55315D02*
D03*
X35433Y55709D02*
D03*
X35827Y52559D02*
D03*
X35630Y52953D02*
D03*
X39961Y63583D02*
D03*
X39764Y55906D02*
D03*
X57677Y76181D02*
D03*
X53937Y50591D02*
D03*
X60433Y52165D02*
D03*
X45276Y48622D02*
D03*
X39961Y53937D02*
D03*
X41732Y51969D02*
D03*
X51575Y52559D02*
D03*
X45079Y58661D02*
D03*
X50591Y53937D02*
D03*
X35827Y55118D02*
D03*
Y56693D02*
D03*
X42913Y54331D02*
D03*
X46260Y53937D02*
D03*
X45276Y50394D02*
D03*
X40157Y51575D02*
D03*
X45472Y50787D02*
D03*
X14173Y10827D02*
D03*
X15945Y31102D02*
D03*
X19435Y31156D02*
D03*
X6693Y1575D02*
D03*
X8858Y5118D02*
D03*
X6299Y3740D02*
D03*
X20472Y29331D02*
D03*
X19685Y28346D02*
D03*
X12008Y6693D02*
D03*
X7874Y10039D02*
D03*
X5512Y9646D02*
D03*
X1181Y10039D02*
D03*
X1575Y6890D02*
D03*
X1378Y7283D02*
D03*
X5709Y17913D02*
D03*
X5512Y10236D02*
D03*
X23425Y30512D02*
D03*
X19685Y4921D02*
D03*
X26181Y6496D02*
D03*
X11024Y2953D02*
D03*
X5709Y8268D02*
D03*
X7480Y6299D02*
D03*
X17323Y6890D02*
D03*
X10827Y12992D02*
D03*
X16339Y8268D02*
D03*
X1575Y9449D02*
D03*
Y11024D02*
D03*
X8661Y8661D02*
D03*
X12008Y8268D02*
D03*
X11024Y4724D02*
D03*
X5906Y5906D02*
D03*
X11220Y5118D02*
D03*
D113*
X20968Y49228D02*
D03*
X13189Y52150D02*
D03*
X22047Y65945D02*
D03*
X20968Y71472D02*
D03*
X13189Y74394D02*
D03*
X22047Y88189D02*
D03*
D114*
X5315Y64764D02*
D03*
X10236D02*
D03*
X15157D02*
D03*
X5315Y87008D02*
D03*
X10236D02*
D03*
X15157D02*
D03*
M02*
